<mxfile host="Electron" modified="2023-12-22T11:26:22.028Z" agent="Mozilla/5.0 (Macintosh; Intel Mac OS X 10_15_7) AppleWebKit/537.36 (KHTML, like Gecko) draw.io/22.1.11 Chrome/114.0.5735.289 Electron/25.9.8 Safari/537.36" etag="5uSomRcCXe5NXJBb8GLL" version="22.1.11" type="device">
  <diagram name="페이지-1" id="nKYn0F8ugsYFi_o_UAKw">
    <mxGraphModel dx="1466" dy="937" grid="1" gridSize="10" guides="1" tooltips="1" connect="1" arrows="1" fold="1" page="1" pageScale="1" pageWidth="827" pageHeight="1169" math="0" shadow="0">
      <root>
        <mxCell id="0" />
        <mxCell id="1" parent="0" />
        <mxCell id="2p0L1IzD1AogG1g9TVI1-20" style="edgeStyle=orthogonalEdgeStyle;rounded=0;orthogonalLoop=1;jettySize=auto;html=1;entryX=0.5;entryY=0;entryDx=0;entryDy=0;" edge="1" parent="1" source="2p0L1IzD1AogG1g9TVI1-1" target="2p0L1IzD1AogG1g9TVI1-5">
          <mxGeometry relative="1" as="geometry" />
        </mxCell>
        <mxCell id="2p0L1IzD1AogG1g9TVI1-1" value="room" style="rounded=0;whiteSpace=wrap;html=1;" vertex="1" parent="1">
          <mxGeometry x="80" y="330" width="120" height="60" as="geometry" />
        </mxCell>
        <mxCell id="2p0L1IzD1AogG1g9TVI1-22" style="edgeStyle=orthogonalEdgeStyle;rounded=0;orthogonalLoop=1;jettySize=auto;html=1;entryX=0.5;entryY=0;entryDx=0;entryDy=0;" edge="1" parent="1" source="2p0L1IzD1AogG1g9TVI1-2" target="2p0L1IzD1AogG1g9TVI1-6">
          <mxGeometry relative="1" as="geometry" />
        </mxCell>
        <mxCell id="2p0L1IzD1AogG1g9TVI1-2" value="clip" style="rounded=0;whiteSpace=wrap;html=1;" vertex="1" parent="1">
          <mxGeometry x="324" y="330" width="120" height="60" as="geometry" />
        </mxCell>
        <mxCell id="2p0L1IzD1AogG1g9TVI1-3" value="aws/s3" style="rounded=0;whiteSpace=wrap;html=1;" vertex="1" parent="1">
          <mxGeometry x="365" y="720" width="120" height="60" as="geometry" />
        </mxCell>
        <mxCell id="2p0L1IzD1AogG1g9TVI1-4" value="compress" style="rounded=0;whiteSpace=wrap;html=1;" vertex="1" parent="1">
          <mxGeometry x="80" y="525" width="120" height="60" as="geometry" />
        </mxCell>
        <mxCell id="2p0L1IzD1AogG1g9TVI1-21" style="edgeStyle=orthogonalEdgeStyle;rounded=0;orthogonalLoop=1;jettySize=auto;html=1;" edge="1" parent="1" source="2p0L1IzD1AogG1g9TVI1-5" target="2p0L1IzD1AogG1g9TVI1-4">
          <mxGeometry relative="1" as="geometry" />
        </mxCell>
        <mxCell id="2p0L1IzD1AogG1g9TVI1-5" value="gathering" style="rounded=0;whiteSpace=wrap;html=1;" vertex="1" parent="1">
          <mxGeometry x="80" y="430" width="120" height="60" as="geometry" />
        </mxCell>
        <mxCell id="2p0L1IzD1AogG1g9TVI1-6" value="ffmpeg" style="rounded=0;whiteSpace=wrap;html=1;" vertex="1" parent="1">
          <mxGeometry x="325" y="430" width="120" height="60" as="geometry" />
        </mxCell>
        <mxCell id="2p0L1IzD1AogG1g9TVI1-7" value="hash" style="rounded=0;whiteSpace=wrap;html=1;" vertex="1" parent="1">
          <mxGeometry x="90" y="720" width="120" height="60" as="geometry" />
        </mxCell>
        <mxCell id="2p0L1IzD1AogG1g9TVI1-8" value="os" style="rounded=0;whiteSpace=wrap;html=1;" vertex="1" parent="1">
          <mxGeometry x="230" y="720" width="120" height="60" as="geometry" />
        </mxCell>
        <mxCell id="2p0L1IzD1AogG1g9TVI1-10" value="domain" style="shape=umlFrame;whiteSpace=wrap;html=1;pointerEvents=0;" vertex="1" parent="1">
          <mxGeometry x="30" y="250" width="530" height="400" as="geometry" />
        </mxCell>
        <mxCell id="2p0L1IzD1AogG1g9TVI1-11" value="room" style="shape=umlFrame;whiteSpace=wrap;html=1;pointerEvents=0;" vertex="1" parent="1">
          <mxGeometry x="60" y="290" width="160" height="310" as="geometry" />
        </mxCell>
        <mxCell id="2p0L1IzD1AogG1g9TVI1-12" value="clip" style="shape=umlFrame;whiteSpace=wrap;html=1;pointerEvents=0;" vertex="1" parent="1">
          <mxGeometry x="310" y="290" width="150" height="220" as="geometry" />
        </mxCell>
        <mxCell id="2p0L1IzD1AogG1g9TVI1-13" value="shared" style="shape=umlFrame;whiteSpace=wrap;html=1;pointerEvents=0;" vertex="1" parent="1">
          <mxGeometry x="30" y="690" width="530" height="190" as="geometry" />
        </mxCell>
        <mxCell id="2p0L1IzD1AogG1g9TVI1-14" value="auth" style="rounded=0;whiteSpace=wrap;html=1;" vertex="1" parent="1">
          <mxGeometry x="230" y="790" width="120" height="60" as="geometry" />
        </mxCell>
        <mxCell id="2p0L1IzD1AogG1g9TVI1-17" value="mongodb" style="rounded=0;whiteSpace=wrap;html=1;" vertex="1" parent="1">
          <mxGeometry x="90" y="790" width="120" height="60" as="geometry" />
        </mxCell>
        <mxCell id="2p0L1IzD1AogG1g9TVI1-26" style="edgeStyle=orthogonalEdgeStyle;rounded=0;orthogonalLoop=1;jettySize=auto;html=1;entryX=0.498;entryY=0.016;entryDx=0;entryDy=0;entryPerimeter=0;" edge="1" parent="1" source="2p0L1IzD1AogG1g9TVI1-10" target="2p0L1IzD1AogG1g9TVI1-13">
          <mxGeometry relative="1" as="geometry" />
        </mxCell>
      </root>
    </mxGraphModel>
  </diagram>
</mxfile>
